<?xml version="1.0" encoding="UTF-8" standalone="no"?>
<!-- Created with Inkscape (http://www.inkscape.org/) -->

<svg
   version="1.1"
   id="svg1"
   width="791"
   height="177"
   viewBox="0 0 791 177"
   sodipodi:docname="header-bg.biden.svg"
   inkscape:version="1.3.2 (091e20e, 2023-11-25, custom)"
   inkscape:export-filename="header-bg.biden.png"
   inkscape:export-xdpi="96"
   inkscape:export-ydpi="96"
   xmlns:inkscape="http://www.inkscape.org/namespaces/inkscape"
   xmlns:sodipodi="http://sodipodi.sourceforge.net/DTD/sodipodi-0.dtd"
   xmlns:xlink="http://www.w3.org/1999/xlink"
   xmlns="http://www.w3.org/2000/svg"
   xmlns:svg="http://www.w3.org/2000/svg">
  <defs
     id="defs1">
    <linearGradient
       id="linearGradient2"
       inkscape:collect="always">
      <stop
         style="stop-color:#04326d;stop-opacity:1;"
         offset="0"
         id="stop2" />
      <stop
         style="stop-color:#6783a6;stop-opacity:1;"
         offset="0.24172187"
         id="stop6" />
      <stop
         style="stop-color:#e9e9e9;stop-opacity:1;"
         offset="0.39403975"
         id="stop5" />
      <stop
         style="stop-color:#ffffff;stop-opacity:1;"
         offset="0.63245034"
         id="stop4" />
      <stop
         style="stop-color:#fddcdc;stop-opacity:1;"
         offset="0.80794704"
         id="stop7" />
      <stop
         style="stop-color:#f41515;stop-opacity:1;"
         offset="1"
         id="stop3" />
    </linearGradient>
    <linearGradient
       inkscape:collect="always"
       xlink:href="#linearGradient2"
       id="linearGradient3"
       x1="443.43219"
       y1="11.805951"
       x2="791.27551"
       y2="343.35693"
       gradientUnits="userSpaceOnUse"
       gradientTransform="matrix(0.99819907,0,0,1.1235535,1.4088264,-210.91245)" />
  </defs>
  <sodipodi:namedview
     id="namedview1"
     pagecolor="#ffffff"
     bordercolor="#000000"
     borderopacity="0.25"
     inkscape:showpageshadow="2"
     inkscape:pageopacity="0.0"
     inkscape:pagecheckerboard="0"
     inkscape:deskcolor="#d1d1d1"
     inkscape:zoom="0.71872801"
     inkscape:cx="356.88048"
     inkscape:cy="280.3564"
     inkscape:window-width="1366"
     inkscape:window-height="705"
     inkscape:window-x="-8"
     inkscape:window-y="-8"
     inkscape:window-maximized="1"
     inkscape:current-layer="g1" />
  <g
     inkscape:groupmode="layer"
     inkscape:label="Image"
     id="g1">
    <rect
       style="fill:url(#linearGradient3);fill-opacity:1;stroke:#4d2114;stroke-width:0.625956"
       id="rect2"
       width="790.51758"
       height="176.81683"
       x="1.4288247"
       y="-0.86649901" />
    <rect
       style="fill:#ffffff;fill-opacity:0.495575;stroke:#4d2114;stroke-width:0.384114"
       id="rect7"
       width="186.261"
       height="86.430397"
       x="69.830276"
       y="65.30986" />
    <g
       transform="matrix(0.6711632,0,0,0.6711632,70.897518,18.653315)"
       id="g93">
      <path
         style="clip-rule:evenodd;fill:#eb2026;fill-rule:evenodd"
         d="m 145.002,84.22 c 5.874,2.412 10.863,7.587 14.156,14.418 h 36.938 V 84.22 Z m 17.742,26.634 c 0.342,2.282 0.521,4.644 0.521,7.064 0,2.806 -0.246,5.532 -0.702,8.148 h 33.534 v -15.212 z m -3.612,25.901 c -2.966,6.36 -7.387,11.334 -12.628,14.057 h 49.592 v -14.057 z"
         id="path92" />
      <path
         style="clip-rule:evenodd;fill:#224192;fill-rule:evenodd"
         d="m 202.384,83.819 v 66.237 h 17.601 v -29.307 l 35.713,30.215 h 0.776 V 84.727 h -17.686 v 29.307 L 203.256,83.819 h -0.871 z M 13.057,84.053 v 68.069 h 23 c 15.862,0 27.054,-6.054 27.054,-20.519 0,-8.036 -5.376,-13.707 -10.488,-15.219 4.142,-1.702 8.194,-5.767 8.194,-12.763 0,-13.802 -11.807,-19.568 -26.172,-19.568 z m 56.593,0 v 68.066 H 88.066 V 84.053 Z m 26.504,0 v 68.066 h 22.205 c 22.736,0 36.573,-14.463 36.573,-34.033 0,-19.475 -13.838,-34.033 -36.573,-34.033 z M 30.59,99.744 h 5.111 c 3.526,0 6.61,1.419 6.61,5.862 0,4.349 -3.085,5.767 -6.61,5.767 H 30.59 Z m 83.979,0.946 h 3.527 c 12.249,0 18.243,8.414 18.243,17.396 0,9.076 -5.993,17.396 -18.243,17.396 h -3.527 z M 30.59,123.853 h 6.433 c 3.525,0 7.05,1.513 7.05,6.334 0,4.727 -3.525,6.242 -7.05,6.242 H 30.59 c 0,0 0,-12.576 0,-12.576 z m 75.98,36.138 c -5.202,0 -8.659,2.926 -8.659,7.418 0,4.491 2.475,6.194 6.312,7.759 2.791,1.123 4.218,1.77 4.218,3.062 0,1.021 -1.046,1.565 -2.917,1.701 -0.571,0.034 -1.173,0.032 -1.808,-0.035 -1.84,-0.171 -3.777,-0.85 -5.395,-1.769 v 5.986 c 1.713,0.784 4.315,1.33 6.916,1.33 5.677,0 8.85,-2.723 8.85,-7.248 0,-4.356 -2.635,-6.09 -6.472,-7.723 -2.664,-1.156 -3.995,-1.94 -3.995,-3.098 0,-1.224 1.33,-2.006 3.424,-2.006 2.093,0 4.251,0.612 5.614,1.531 v -5.752 c -1.523,-0.68 -3.805,-1.155 -6.089,-1.155 z m 100.596,0.135 v 24.841 h 5.675 v -12.352 l 1.84,1.634 11.703,11.058 h 0.223 v -24.841 h -5.71 v 12.352 c -0.634,-0.511 -1.237,-1.122 -1.871,-1.666 l -11.608,-11.026 z m -194.118,0.339 v 24.502 h 5.806 v -7.794 h 1.808 c 5.487,0 9.293,-2.754 9.293,-8.368 0,-5.547 -3.806,-8.34 -9.293,-8.34 z m 27.432,0 v 24.502 h 5.678 V 176.9 h 2.534 l 3.683,8.067 h 6.057 l -4.601,-9.088 c 2.506,-1.191 4.186,-3.536 4.186,-7.074 0,-5.512 -3.773,-8.34 -9.229,-8.34 z m 30.192,0 v 24.502 h 15.446 v -5.242 h -9.641 v -4.696 h 7.833 v -4.966 h -7.833 v -4.356 h 9.166 v -5.242 c 0,0 -14.971,0 -14.971,0 z m 56.259,0 v 24.498 h 5.806 v -24.498 c -0.001,0 -5.806,0 -5.806,0 z m 19.441,0 v 24.502 h 7.673 c 7.962,0 12.912,-5.139 12.912,-12.249 0,-7.078 -4.947,-12.253 -12.94,-12.253 z m 32.98,0 v 24.502 h 15.446 v -5.242 h -9.641 v -4.696 h 7.833 v -4.966 h -7.833 v -4.356 h 9.166 v -5.242 c 0,0 -14.971,0 -14.971,0 z m 58.989,0 v 5.242 h 6.089 v 19.259 h 5.838 v -19.259 h 6.089 v -5.242 z m -219.488,5.243 h 2.059 c 1.776,0 3.172,0.954 3.172,3.098 0,2.212 -1.364,3.13 -3.14,3.13 h -2.091 c 0,-0.001 0,-6.228 0,-6.228 z m 27.306,0 h 2.885 c 1.745,0 3.108,0.954 3.108,3.098 0,2.246 -1.332,3.13 -3.076,3.13 h -2.917 c 0,-0.001 0,-6.228 0,-6.228 z m 106.018,0 h 1.776 c 4.662,0 7.135,3.199 7.135,7.011 0,3.811 -2.472,7.007 -7.103,7.007 h -1.808 z"
         id="path93" />
    </g>
    <text
       xml:space="preserve"
       style="font-style:normal;font-variant:normal;font-weight:normal;font-stretch:normal;font-size:29.3333px;font-family:'CheGuevara Text';-inkscape-font-specification:'CheGuevara Text';fill:#aecbeb;fill-opacity:1;stroke:#4d2114;stroke-width:0.551"
       x="70.958694"
       y="48.697147"
       id="text7"><tspan
         sodipodi:role="line"
         id="tspan7"
         x="70.958694"
         y="48.697147">BidenWisdomBook.com</tspan></text>
  </g>
</svg>
